<?xml version="1.0" encoding="utf-8"?>
<!-- Generator: Adobe Illustrator 23.0.1, SVG Export Plug-In . SVG Version: 6.00 Build 0)  -->
<svg version="1.1" id="Layer_1" xmlns="http://www.w3.org/2000/svg" xmlns:xlink="http://www.w3.org/1999/xlink" x="0px" y="0px"
	 viewBox="0 0 64 64" style="enable-background:new 0 0 64 64;" xml:space="preserve">
<style type="text/css">
	.st0{fill:none;stroke:#000000;stroke-width:2;stroke-linecap:round;stroke-linejoin:round;stroke-miterlimit:10;}
</style>
<path class="st0" d="M40.4,14.8c-4.9,0-8.9,4-8.9,8.9c0,0.7,0.1,1.4,0.2,2c-7.4-0.4-14-3.9-18.4-9.3c-0.8,1.3-1.2,2.8-1.2,4.5
	c0,3.1,1.6,5.8,4,7.4c-1.5,0-2.8-0.4-4-1.1v0.1c0,4.3,3.1,7.9,7.2,8.7c-0.7,0.2-1.5,0.3-2.4,0.3c-0.6,0-1.1-0.1-1.7-0.2
	c1.1,3.5,4.4,6.1,8.3,6.2c-3.1,2.4-6.9,3.8-11.1,3.8c-0.7,0-1.4,0-2.1-0.1c4,2.5,8.6,4,13.7,4c16.4,0,25.4-13.6,25.4-25.4
	c0-0.4,0-0.8,0-1.2c1.7-1.3,3.3-2.8,4.5-4.6c-1.6,0.7-3.3,1.2-5.1,1.4c1.8-1.1,3.3-2.9,3.9-4.9c-1.7,1-3.6,1.8-5.7,2.2
	C45.3,15.9,42.9,14.8,40.4,14.8L40.4,14.8z"/>
</svg>
